<svg width="50" height="50" fill="none" xmlns="http://www.w3.org/2000/svg"><g filter="url(#a)" fill-rule="evenodd" clip-rule="evenodd" fill="#FF7500"><path d="M12.438 0c1.553 0 2.812 1.231 2.812 2.75V5.5h2.813c1.553 0 2.812 1.231 2.812 2.75S19.615 11 18.062 11H15.25v2.75c0 1.519-1.26 2.75-2.813 2.75-1.553 0-2.812-1.231-2.812-2.75V11H6.813C5.259 11 4 9.769 4 8.25S5.26 5.5 6.813 5.5h2.812V2.75c0-1.519 1.26-2.75 2.813-2.75Zm0 27.5c1.553 0 2.812 1.231 2.812 2.75V33h2.813c1.553 0 2.812 1.231 2.812 2.75s-1.26 2.75-2.813 2.75H15.25v2.75c0 1.519-1.26 2.75-2.813 2.75-1.553 0-2.812-1.231-2.812-2.75V38.5H6.813C5.259 38.5 4 37.269 4 35.75S5.26 33 6.813 33h2.812v-2.75c0-1.519 1.26-2.75 2.813-2.75ZM32.125 0c1.276 0 2.392.84 2.719 2.046l3.316 12.251 9.433 5.321A2.74 2.74 0 0 1 49 22a2.74 2.74 0 0 1-1.407 2.382l-9.433 5.32-3.316 12.252C34.517 43.16 33.4 44 32.124 44c-1.275 0-2.391-.84-2.718-2.046L26.09 29.703l-9.433-5.321A2.74 2.74 0 0 1 15.25 22c0-.983.536-1.89 1.407-2.382l9.433-5.32 3.316-12.252C29.733.84 30.85 0 32.125 0Z"/></g><defs><filter id="a" x="0" y="0" width="53" height="52" filterUnits="userSpaceOnUse" color-interpolation-filters="sRGB"><feFlood flood-opacity="0" result="BackgroundImageFix"/><feColorMatrix in="SourceAlpha" values="0 0 0 0 0 0 0 0 0 0 0 0 0 0 0 0 0 0 127 0" result="hardAlpha"/><feOffset dy="4"/><feGaussianBlur stdDeviation="2"/><feComposite in2="hardAlpha" operator="out"/><feColorMatrix values="0 0 0 0 0 0 0 0 0 0 0 0 0 0 0 0 0 0 0.25 0"/><feBlend in2="BackgroundImageFix" result="effect1_dropShadow_3_105"/><feBlend in="SourceGraphic" in2="effect1_dropShadow_3_105" result="shape"/></filter></defs></svg>